<svg version="1.1" id="Layer_1" xmlns="http://www.w3.org/2000/svg" xmlns:xlink="http://www.w3.org/1999/xlink" x="0px" y="0px"
	 width="100%" viewBox="0 0 1505 1599" enable-background="new 0 0 1505 1599" xml:space="preserve">
<path fill="none" opacity="1.000000" stroke="#000000" stroke-linecap="round" stroke-linejoin="round" stroke-width="11.000000"
	d="
M1149.250000,270.500000 
	C1147.379761,268.488373 1147.477051,266.023224 1147.477905,263.500000 
	C1147.504761,180.666672 1147.500000,97.833336 1147.500000,15.000000 
	C1147.500000,7.628176 1146.881836,7.001297 1139.500000,7.001255 
	C881.166687,6.999753 622.833313,6.999749 364.500000,7.001264 
	C357.074402,7.001307 356.001434,8.074427 356.001312,15.500000 
	C355.999451,129.666672 356.000000,243.833328 356.000000,358.000000 
"/>
<path fill="none" opacity="1.000000" stroke="#000000" stroke-linecap="round" stroke-linejoin="round" stroke-width="12.000000"
	d="
M1147.500000,489.500000 
	C1147.500000,698.000000 1147.492432,906.500000 1147.530029,1115.000000 
	C1147.531372,1122.632812 1146.629517,1123.454346 1139.000488,1123.543091 
	C1047.501465,1124.607056 955.999756,1123.864502 864.500000,1123.860596 
	C845.340149,1123.859863 826.166565,1123.534058 807.000000,1123.525024 
	C696.666687,1123.473633 586.333313,1123.500000 476.000000,1123.500000 
	C438.666656,1123.500000 401.333344,1123.500000 364.000000,1123.500000 
	C356.628174,1123.500000 356.001465,1122.881836 356.001312,1115.500000 
	C355.999329,1021.000000 356.000000,926.500000 356.000000,832.000000 
"/>
<path fill="none" opacity="1.000000" stroke="#000000" stroke-linecap="round" stroke-linejoin="round" stroke-width="13.000000"
	d="
M871.000000,367.000000 
	C867.688660,358.525574 871.273438,351.167114 875.046265,344.024414 
	C884.529663,326.070648 893.676392,307.921326 904.987549,290.991699 
	C913.389587,278.416229 923.323120,267.044647 933.068420,255.558044 
	C948.387817,237.501526 960.862793,217.399872 974.928223,198.446732 
	C982.498291,188.246124 989.057434,177.297440 996.576477,167.056122 
	C1004.307312,156.526321 1007.908691,144.711731 1009.528870,132.003677 
	C1011.360535,117.636436 1009.504272,104.088226 1000.981079,92.013367 
	C988.063904,73.713585 971.115356,64.414970 947.980347,66.810455 
	C933.497681,68.310036 919.067505,69.658638 905.007141,73.525970 
	C887.667419,78.295280 871.343994,85.629356 855.529724,94.055840 
	C844.504333,99.930641 833.658813,106.153343 823.483765,113.477448 
	C814.858398,119.686104 808.386414,127.722275 803.553162,137.027603 
	C797.295166,149.076187 791.166626,161.200485 786.471985,173.989716 
	C783.788208,181.300858 782.499512,188.941467 781.158264,196.527985 
	C780.575623,199.823288 779.467468,202.638580 777.414551,204.923218 
	C775.516663,207.035324 775.561401,208.912048 775.908081,211.512253 
	C778.030884,227.434738 778.321045,243.469925 777.953003,259.498932 
	C777.564819,276.407898 780.527649,293.123566 780.509277,310.000000 
	C780.506165,312.865112 779.988525,315.805267 781.500000,318.500000 
"/>
<path fill="none" opacity="1.000000" stroke="#000000" stroke-linecap="round" stroke-linejoin="round" stroke-width="11.000000"
	d="
M264.000000,462.000000 
	C274.460052,468.881012 286.552094,472.078156 298.082092,476.274384 
	C315.919006,482.765900 333.786316,489.192993 351.468781,496.080200 
	C372.475922,504.262360 393.286652,512.884216 413.578003,522.841003 
	C435.750366,533.720886 457.235138,545.685913 477.996979,559.004700 
	C510.910126,580.118591 540.690063,605.077942 569.109131,631.884338 
	C593.230835,654.637146 616.273254,678.409790 638.928223,702.567322 
	C655.958191,720.726624 672.472107,739.377747 688.927917,758.063477 
	C695.040405,765.004211 700.333374,772.666626 706.000000,780.000000 
"/>
<path fill="none" opacity="1.000000" stroke="#000000" stroke-linecap="round" stroke-linejoin="round" stroke-width="11.000000"
	d="
M775.000000,207.000000 
	C770.124451,203.915451 768.096252,198.726212 765.523254,193.987381 
	C756.869324,178.049561 747.700623,162.293243 735.820190,148.656631 
	C720.001038,130.499039 700.632019,117.221970 676.515503,111.929337 
	C670.688049,110.650436 665.122681,112.189316 659.514832,112.672112 
	C651.998840,113.319168 644.620850,115.416771 637.519470,118.052490 
	C628.771240,121.299438 621.254700,126.617828 614.507263,133.007660 
	C601.527222,145.299698 586.896484,155.001099 569.972229,160.920609 
	C565.153625,162.605988 560.013977,163.397675 554.997314,164.487671 
	C541.213257,167.482635 538.003235,177.655518 540.010681,188.498016 
	C542.218323,200.420944 544.506348,212.366302 549.547913,223.478271 
	C557.011780,239.929321 568.659790,252.768875 584.524292,261.455658 
	C606.876221,273.694733 628.601990,286.901703 649.565918,301.404694 
	C654.438416,304.775513 656.770325,308.764709 656.500000,314.500000 
"/>
<path fill="none" opacity="1.000000" stroke="#000000" stroke-linecap="round" stroke-linejoin="round" stroke-width="10.000000"
	d="
M325.499969,657.000000 
	C325.166656,657.500000 324.837616,658.002930 324.499329,658.499573 
	C319.708069,665.532227 320.210236,667.781799 328.014496,671.469299 
	C341.688751,677.930176 355.937012,680.069397 371.026917,677.669128 
	C376.226654,676.842041 381.671082,676.951904 387.005615,676.580505 
	C401.870453,675.545532 416.681427,674.015320 431.513031,672.640686 
	C451.241669,670.812134 471.025421,670.342712 490.510468,675.460144 
	C499.746857,677.885925 507.349731,683.066711 514.448730,689.060730 
	C518.393555,692.391418 518.474487,696.799866 515.506409,701.004517 
	C509.673035,709.268433 501.173676,711.346436 492.028595,709.827759 
	C483.516479,708.414307 474.981445,708.277283 466.497803,708.161865 
	C450.171997,707.939819 433.789246,708.050537 417.515442,709.215637 
	C406.585388,709.998108 395.200806,709.253845 384.956818,714.921997 
	C380.800842,717.221619 376.754822,719.511902 373.505646,723.005249 
	C370.363495,726.383545 370.250336,729.283264 372.997162,733.002075 
	C375.956146,737.008118 380.313812,739.856689 382.500000,744.500000 
"/>
<path fill="none" opacity="1.000000" stroke="#000000" stroke-linecap="round" stroke-linejoin="round" stroke-width="10.000000"
	d="
M887.500000,446.000000 
	C893.871826,437.867523 901.475830,432.010193 912.499878,432.502533 
	C918.335022,432.763092 923.210327,435.588318 927.989075,438.517822 
	C952.906860,453.793427 979.237244,465.943390 1007.532898,473.374756 
	C1019.395508,476.490326 1031.676147,477.606476 1043.996948,478.080475 
	C1053.196167,478.434448 1062.340332,478.321594 1071.501343,477.514862 
	C1090.192871,475.868774 1108.285767,471.491425 1125.989014,465.467834 
	C1144.055908,459.320618 1161.772339,452.360931 1178.542725,443.077209 
	C1188.279663,437.687073 1195.975952,430.277863 1202.465210,421.474365 
	C1206.566650,415.910278 1211.602539,411.253357 1216.617310,406.627228 
	C1218.279541,405.093903 1218.601562,403.779938 1218.481812,402.001221 
	C1216.769165,376.568146 1209.222290,353.478912 1192.057251,333.949677 
	C1180.175781,320.431641 1165.146118,312.458862 1148.545166,306.376617 
	C1131.499146,300.131256 1113.989014,296.687683 1096.004517,297.168762 
	C1072.766113,297.790466 1049.788330,301.051636 1026.972168,305.868225 
	C997.852539,312.015533 969.603149,320.947876 941.499451,330.498474 
	C932.984436,333.392181 924.897095,337.879669 915.500000,337.500000 
"/>
<path fill="none" opacity="1.000000" stroke="#000000" stroke-linecap="round" stroke-linejoin="round" stroke-width="12.000000"
	d="
M716.500000,348.000000 
	C704.681213,342.535400 693.917419,335.184631 682.512817,328.976440 
	C674.778992,324.766479 667.171631,320.324432 659.492310,316.013733 
	C658.716370,315.578186 657.844971,315.076965 656.998230,315.038330 
	C643.680542,314.431244 631.829041,308.097382 619.024475,305.384460 
	C596.384827,300.587860 573.675781,298.265808 550.492126,299.327576 
	C537.362793,299.928864 524.428345,301.310181 511.489471,303.436005 
	C493.798950,306.342621 478.121185,313.466553 464.542938,325.050323 
	C457.607056,330.967407 450.962555,337.197693 443.530365,342.542206 
	C433.154083,350.003815 429.259857,361.362579 426.008118,373.002258 
	C424.318115,379.051666 421.830963,385.186432 423.120544,391.475281 
	C425.521667,403.184631 432.891815,411.172394 443.473358,416.552429 
	C450.911743,420.334320 458.664246,423.244598 466.501984,425.994385 
	C470.050934,427.239594 473.600830,428.465637 476.499451,431.000641 
	C477.217102,431.628296 477.939087,432.018188 478.999451,432.034790 
	C490.337128,432.212341 501.283264,435.348846 512.496582,436.532227 
	C522.987976,437.639374 533.460876,438.808533 543.987000,439.660461 
	C559.504089,440.916351 575.063843,439.459686 590.479004,440.750977 
	C602.471680,441.755585 613.840210,438.900299 625.495361,437.943695 
	C636.516907,437.039093 647.515076,435.791046 658.495422,434.462372 
	C668.017334,433.310120 677.463806,431.310577 687.010376,430.649872 
	C696.209961,430.013153 705.317017,428.675629 714.496338,427.953766 
	C723.657837,427.233276 732.813232,426.785736 742.000061,426.996399 
	C743.166138,427.023132 744.541382,426.593353 745.465942,427.066498 
	C751.149353,429.974945 757.095825,428.890869 762.999084,428.486786 
	C766.614990,428.239288 769.146118,429.285400 771.628601,432.397430 
	C777.728088,440.043579 783.910706,447.669128 791.948730,453.569855 
	C797.408997,457.578217 803.324524,457.482941 809.500916,457.012360 
	C815.766357,456.535004 821.199829,452.799377 827.500000,452.500000 
"/>
<path fill="none" opacity="1.000000" stroke="#000000" stroke-linecap="round" stroke-linejoin="round" stroke-width="8.000000"
	d="
M780.500000,997.500000 
	C779.558655,987.820129 774.421936,980.320740 767.994629,973.505066 
	C765.379211,970.731567 765.120056,967.984497 766.892151,964.445984 
	C768.723083,960.789856 768.650574,956.994385 766.631775,952.934509 
	C763.824707,947.289368 762.441040,940.984314 760.664917,934.951416 
	C754.564758,914.230957 747.325134,893.977661 737.965454,874.516602 
	C732.152893,862.431091 725.207886,850.966248 717.463806,840.025635 
	C710.300415,829.905334 702.842957,819.992920 695.496948,810.002258 
	C689.844421,802.314819 682.292908,797.527771 672.997925,795.509644 
	C663.076294,793.355713 656.148010,796.677856 652.046387,806.020325 
	C646.947693,817.633728 643.440491,829.819153 640.027527,842.007690 
	C636.011902,856.348755 629.213318,869.013733 618.516602,879.516907 
	C612.168030,885.750671 604.327454,886.766296 595.999084,886.533386 
	C593.484375,886.463074 592.563965,884.673218 591.529053,882.982178 
	C590.873413,881.910828 590.500916,880.666260 589.999939,879.500061 
	C587.266357,873.136230 586.179688,873.781738 580.986267,875.967407 
	C566.901184,881.895447 552.408691,885.534729 537.006409,882.467834 
	C529.292175,880.931885 521.797302,878.561218 515.028381,874.453186 
	C511.262238,872.167542 508.607544,868.845276 507.951935,863.900024 
	C510.341248,860.195740 514.393250,857.809387 517.549988,854.548401 
	C520.029785,851.986755 523.434937,850.322937 524.592590,846.528259 
	C524.756592,845.990662 526.166626,845.833313 527.000000,845.499939 
"/>
<path fill="none" opacity="1.000000" stroke="#000000" stroke-linecap="round" stroke-linejoin="round" stroke-width="11.000000"
	d="
M524.000000,846.500000 
	C521.000000,843.666687 517.845337,840.977661 515.035889,837.966553 
	C510.729126,833.350708 511.490051,828.241821 517.018982,825.032715 
	C527.424316,818.993286 538.700073,814.736938 549.527649,809.557739 
	C552.805420,807.989868 555.731934,806.210876 557.473267,802.985535 
	C559.019775,800.121033 557.618774,796.150574 554.472839,795.079773 
	C552.246643,794.322083 550.005371,793.489868 547.500977,793.445923 
	C535.332153,793.232300 523.166687,792.832764 510.999969,792.501648 
	C510.500336,792.488037 509.955200,792.632507 509.506500,792.480774 
	C495.192383,787.640381 482.208038,793.639709 469.010071,797.534119 
	C455.477966,801.527161 442.979095,808.116943 429.969391,813.424988 
	C420.227051,817.399963 410.202637,820.886292 399.499817,820.908875 
	C394.424683,820.919617 389.132782,820.055908 385.573669,815.936340 
	C382.034088,811.839417 383.048004,807.078491 385.000000,802.500000 
"/>
<path fill="none" opacity="1.000000" stroke="#000000" stroke-linecap="round" stroke-linejoin="round" stroke-width="8.000000"
	d="
M837.500000,694.000000 
	C835.500000,707.666687 833.662476,721.359619 831.455139,734.992737 
	C829.156128,749.191956 826.529663,763.338623 823.991760,777.498535 
	C821.361816,792.171814 818.683411,806.836365 815.994690,821.499023 
	C813.854370,833.170532 811.564087,844.815430 809.529358,856.505127 
	C807.560730,867.814880 805.704956,879.147766 804.032227,890.504761 
	C801.899353,904.985168 799.931946,919.491089 798.034912,934.004578 
	C797.319641,939.476440 797.000000,945.000000 796.500000,950.500000 
"/>
<path fill="none" opacity="1.000000" stroke="#000000" stroke-linecap="round" stroke-linejoin="round" stroke-width="6.000000"
	d="
M938.500000,165.000000 
	C931.952881,169.537445 928.375000,176.387054 924.502747,183.001587 
	C912.658691,203.233215 904.420227,225.150421 895.084534,246.536896 
	C884.386475,271.044342 873.945496,295.680054 864.116516,320.546051 
	C855.461609,342.441833 848.806274,365.035126 843.485046,387.996521 
	C842.591003,391.854431 841.500000,395.666656 840.500000,399.500000 
"/>
<path fill="none" opacity="1.000000" stroke="#000000" stroke-linecap="round" stroke-linejoin="round" stroke-width="9.000000"
	d="
M1131.500000,412.500000 
	C1114.833374,411.333344 1098.118164,410.629181 1081.511597,408.888916 
	C1058.054443,406.430725 1034.577515,405.358185 1011.004089,404.821228 
	C986.057312,404.252899 961.270752,405.267944 936.494019,407.944702 
	C927.427856,408.924133 918.355957,409.763153 909.512085,412.046783 
	C906.104675,412.926605 902.833313,414.333313 899.500000,415.500000 
"/>
<path fill="none" opacity="1.000000" stroke="#000000" stroke-linecap="round" stroke-linejoin="round" stroke-width="5.000000"
	d="
M856.500000,177.500000 
	C846.046326,203.629929 837.504639,230.394073 830.005737,257.501587 
	C825.134705,275.109955 821.777100,293.037598 818.382080,310.977692 
	C815.709045,325.102814 813.627747,339.311798 811.717590,353.529236 
	C811.039185,358.578705 810.706116,363.833130 810.322632,368.986816 
	C809.639709,378.164764 809.514771,387.322815 809.517517,396.500000 
	C809.518372,399.310455 807.805115,401.297424 806.500000,403.500000 
"/>
<path fill="none" opacity="1.000000" stroke="#000000" stroke-linecap="round" stroke-linejoin="round" stroke-width="8.000000"
	d="
M723.500000,391.500000 
	C719.006836,386.884338 713.630127,382.511414 707.878723,380.945282 
	C701.807068,379.291901 695.584412,377.739960 689.525391,375.915680 
	C676.098450,371.873138 662.339722,369.387970 648.483398,368.192413 
	C633.874146,366.931915 619.204895,367.085785 604.473633,368.769348 
	C590.089966,370.413208 576.161255,373.996185 561.976807,376.360748 
	C548.454163,378.614929 534.704956,378.208984 520.998291,377.808990 
	C509.172211,377.463867 497.320984,376.161652 485.500000,378.000000 
"/>
<path fill="none" opacity="1.000000" stroke="#000000" stroke-linecap="round" stroke-linejoin="round" stroke-width="11.000000"
	d="
M237.000000,542.500000 
	C239.544632,544.579041 239.412125,548.056946 241.416122,550.566956 
	C247.790283,558.550293 256.901031,561.466187 266.030090,563.886475 
	C283.316315,568.469299 300.969299,571.476868 318.490662,575.045898 
	C327.093170,576.798096 335.301086,579.653320 342.544464,584.939087 
	C345.345428,586.983032 346.715424,589.048401 345.523438,592.508057 
	C344.193939,596.366760 341.031586,596.065063 338.000427,595.984253 
	C326.999359,595.690796 316.001495,595.251099 304.999054,595.052795 
	C301.921387,594.997253 300.204132,596.421448 299.359924,599.966614 
	C296.363037,612.552124 296.143372,612.416199 283.000366,612.539978 
	C277.495605,612.591797 271.910797,611.694763 266.500000,613.500000 
"/>
<path fill="none" opacity="1.000000" stroke="#000000" stroke-linecap="round" stroke-linejoin="round" stroke-width="7.000000"
	d="
M816.250000,698.000000 
	C816.848450,698.728821 817.442566,699.704224 816.959778,700.474792 
	C811.104309,709.820862 810.633423,720.709595 808.686218,731.035095 
	C805.797180,746.355408 803.058655,761.706177 800.035828,777.007080 
	C794.080933,807.149780 788.276855,837.322571 782.530457,867.505798 
	C780.506531,878.136169 778.836182,888.833801 776.993530,899.498901 
	C776.876892,900.174194 776.892029,901.112549 776.465271,901.456970 
	C771.911255,905.133179 773.658691,910.180542 774.149170,914.482971 
	C775.529663,926.591187 773.012146,938.490051 772.966797,950.499878 
	C772.956360,953.264709 771.239380,954.739380 768.500000,955.000000 
"/>
<path fill="none" opacity="1.000000" stroke="#000000" stroke-linecap="round" stroke-linejoin="round" stroke-width="8.000000"
	d="
M765.000000,967.500000 
	C761.877686,966.766785 759.760559,964.502991 757.511353,962.487305 
	C751.155029,956.791077 743.929382,956.897583 736.524109,959.566895 
	C732.433411,961.041443 731.681274,964.032654 732.969971,969.007812 
	C735.392761,978.361816 740.552490,986.312256 746.099670,993.927429 
	C750.609192,1000.118042 755.943237,1005.716553 761.013000,1011.488586 
	C768.984802,1020.564392 773.642334,1030.872192 775.709229,1042.964233 
	C778.804077,1061.070312 780.451904,1079.177002 779.979858,1097.499512 
	C779.765076,1105.835938 779.333313,1114.166626 779.000000,1122.500000 
"/>
<path fill="none" opacity="1.000000" stroke="#000000" stroke-linecap="round" stroke-linejoin="round" stroke-width="9.000000"
	d="
M785.000000,722.000000 
	C784.447449,729.839539 779.648071,735.429688 774.429321,740.426147 
	C763.759888,750.641113 752.409485,760.112000 741.028564,769.534485 
	C738.680359,771.478699 736.560425,773.718079 734.409241,775.910950 
	C728.323364,782.114563 727.972656,788.772400 730.942200,796.522156 
	C741.621521,824.392395 752.655884,852.134521 762.009644,880.496826 
	C763.775757,885.852295 766.055664,891.073242 767.366943,896.531982 
	C768.283630,900.347900 770.410645,902.961975 773.000000,905.500000 
"/>
<path fill="none" opacity="1.000000" stroke="#000000" stroke-linecap="round" stroke-linejoin="round" stroke-width="10.000000"
	d="
M662.500000,749.500000 
	C656.759399,750.423462 651.119080,749.050659 645.513550,748.385681 
	C631.327942,746.702759 617.121033,747.021545 603.013977,748.171631 
	C587.785461,749.413086 572.673218,752.051270 557.498352,753.986816 
	C538.897644,756.359314 520.219116,756.497742 501.497833,756.102539 
	C494.844696,755.962097 488.166656,757.000000 481.500000,757.500000 
"/>
<path fill="none" opacity="1.000000" stroke="#000000" stroke-linecap="round" stroke-linejoin="round" stroke-width="10.000000"
	d="
M543.500000,626.500000 
	C532.188904,623.327759 520.617371,623.376648 508.999695,623.450378 
	C491.664551,623.560425 474.552155,625.593689 457.495422,628.472839 
	C444.921448,630.595459 432.251648,631.988770 419.505676,630.452820 
	C407.246307,628.975586 395.060913,626.916382 383.010010,624.205505 
	C376.564178,622.755615 370.157074,621.302856 363.500000,621.500000 
"/>
<path fill="none" opacity="1.000000" stroke="#000000" stroke-linecap="round" stroke-linejoin="round" stroke-width="9.000000"
	d="
M707.000000,380.000000 
	C707.271851,376.828705 706.390625,374.489502 703.556152,372.422974 
	C691.192871,363.409180 677.345215,358.078369 662.500671,354.996674 
	C647.226257,351.825745 631.809204,353.411591 616.508057,354.163544 
	C598.841614,355.031677 581.196350,356.161285 563.503296,356.625427 
	C554.484497,356.862000 545.500000,356.923889 536.500000,356.500000 
"/>
<path fill="none" opacity="1.000000" stroke="#000000" stroke-linecap="round" stroke-linejoin="round" stroke-width="13.000000"
	d="
M752.500000,430.000000 
	C752.745300,433.414734 751.152466,435.998077 749.029663,438.524902 
	C739.154480,450.279724 730.355774,462.911713 722.712341,476.122864 
	C714.088318,491.029114 710.209534,507.516541 709.257202,524.986755 
	C708.231445,543.805725 713.853577,559.797913 725.572388,573.940002 
	C729.911743,579.176758 734.925354,583.950500 741.516541,586.456543 
	C742.946899,587.000366 744.489868,587.844299 745.382812,588.632690 
	C754.357544,596.556213 765.915710,600.161072 775.497986,607.002869 
	C788.494263,616.282227 801.827576,625.112366 813.974426,635.529785 
	C816.178162,637.419861 818.365723,639.254700 821.000000,640.500000 
"/>
<path fill="none" opacity="1.000000" stroke="#000000" stroke-linecap="round" stroke-linejoin="round" stroke-width="9.000000"
	d="
M794.500000,991.500000 
	C794.203369,980.143188 798.851440,970.365295 804.548706,961.029724 
	C808.884644,953.924744 815.287109,949.247681 822.951660,945.889709 
	C828.703308,943.369751 833.504517,946.744324 833.350281,953.496582 
	C833.211121,959.585876 831.069946,965.444336 827.464905,970.474854 
	C821.426819,978.900330 814.995605,987.046570 809.041016,995.528748 
	C800.546082,1007.629578 796.772644,1021.305481 796.508057,1036.000122 
	C796.301086,1047.499390 795.668091,1059.020874 796.148987,1070.493774 
	C796.576416,1080.690186 795.960449,1090.833496 796.009644,1101.000000 
	C796.043457,1108.002197 795.699646,1115.015137 796.500000,1122.000000 
"/>
<path fill="none" opacity="1.000000" stroke="#000000" stroke-linecap="round" stroke-linejoin="round" stroke-width="7.000000"
	d="
M843.500000,573.500000 
	C843.242798,558.606323 841.545959,543.816345 840.219727,529.002686 
	C839.293396,518.655334 838.464294,508.275635 836.909546,498.013702 
	C834.647766,483.085114 832.997253,468.009033 828.446838,453.516693 
	C827.711304,451.174164 828.889038,450.336548 830.502991,449.505798 
	C837.329346,445.992218 844.204529,442.571472 850.989624,438.980469 
	C858.131958,435.200378 865.091187,436.506744 871.990967,439.520599 
	C876.503113,441.491547 880.554626,444.441986 885.490112,445.544312 
	C888.551880,446.228210 888.945312,449.652344 890.905884,451.595001 
	C899.611328,460.220886 908.700012,468.445770 917.076172,477.428955 
	C928.233337,489.394775 932.732117,504.116364 935.994690,519.501099 
	C937.745056,527.754944 938.121033,536.184937 937.375122,544.488770 
	C936.029175,559.473877 933.447937,574.206970 924.549194,587.034119 
	C921.098206,592.008667 916.572144,595.801208 911.941772,599.425659 
	C906.428589,603.741333 904.029846,608.753479 903.795044,615.993347 
	C903.222168,633.664734 900.083679,650.740295 889.093079,665.568970 
	C883.001587,673.787659 875.897766,681.980225 866.800598,684.872803 
	C857.999756,687.671143 850.116577,693.876343 839.982544,693.315918 
	C836.802917,693.140076 835.361694,691.253967 833.000000,690.500000 
"/>
<path fill="none" opacity="1.000000" stroke="#000000" stroke-linecap="round" stroke-linejoin="round" stroke-width="13.000000"
	d="
M345.500000,417.500000 
	C345.640411,410.589233 343.493530,405.412994 336.022064,403.417358 
	C331.457977,402.198273 328.845093,397.995789 325.536194,394.960541 
	C314.239899,384.598724 303.433044,373.731293 293.011017,362.489777 
	C285.895416,354.814636 277.447021,349.315948 267.511688,345.965332 
	C259.620331,343.303986 251.864777,340.242249 243.991592,337.524353 
	C235.301559,334.524536 229.155670,338.862091 228.464035,347.997284 
	C227.523483,360.420166 226.341492,372.830292 223.483704,384.996185 
	C221.395081,393.887756 217.450485,396.554169 208.517700,394.425690 
	C199.437546,392.262115 190.437408,389.698883 181.532639,386.896301 
	C178.243393,385.861115 175.208832,385.865479 172.000000,386.500000 
"/>
<path fill="none" opacity="1.000000" stroke="#000000" stroke-linecap="round" stroke-linejoin="round" stroke-width="12.000000"
	d="
M478.000000,432.500000 
	C477.064270,437.420868 477.522980,442.213013 478.970581,447.008881 
	C481.879395,456.645691 480.706726,466.380859 478.900513,475.981293 
	C477.898651,481.306274 474.643005,482.054749 469.471832,479.558350 
	C462.350555,476.120483 458.593262,469.414246 453.500519,463.999512 
	C439.434387,449.044006 428.472870,431.687134 416.050354,415.461456 
	C413.178802,411.710785 410.414520,407.999603 405.993378,406.014771 
	C401.139130,403.835510 398.031311,404.870392 396.636963,410.036957 
	C395.414948,414.564972 393.864716,418.860809 391.750000,423.000000 
"/>
<path fill="none" opacity="1.000000" stroke="#000000" stroke-linecap="round" stroke-linejoin="round" stroke-width="20.000000"
	d="
M1303.500000,1434.500000 
	C1301.000000,1427.166626 1298.604004,1419.795532 1295.958252,1412.515137 
	C1294.534912,1408.598633 1290.865967,1406.281250 1288.384399,1403.089844 
	C1266.751099,1375.267700 1244.991821,1347.538696 1222.855225,1320.116821 
	C1218.825073,1315.124390 1211.728882,1313.850098 1205.951050,1311.102905 
	C1201.495605,1308.984375 1196.488770,1308.431885 1191.500000,1308.500000 
"/>
<path fill="none" opacity="1.000000" stroke="#000000" stroke-linecap="round" stroke-linejoin="round" stroke-width="11.000000"
	d="
M727.000000,685.500000 
	C722.601013,683.617676 721.613892,679.573242 720.474670,675.507080 
	C714.689697,654.857971 711.158386,633.842834 708.804321,612.521606 
	C707.424438,600.023193 708.063904,587.370728 705.505188,574.998901 
	C704.550720,570.383789 703.848755,565.707031 701.507996,561.495544 
	C698.823242,556.665222 697.494690,556.229614 691.993347,556.949219 
	C681.644653,558.302917 681.288452,559.767395 678.997803,547.000366 
	C678.847778,546.164124 678.661804,545.334229 678.500854,544.499817 
	C677.292603,538.235413 672.365417,536.402588 667.513367,540.515747 
	C662.155945,545.057251 659.105164,551.122192 656.457642,557.482361 
	C655.028870,560.914734 652.977112,564.088684 651.562561,567.525757 
	C650.512329,570.077637 648.666626,571.621155 646.500000,573.000000 
"/>
<path fill="none" opacity="1.000000" stroke="#000000" stroke-linecap="round" stroke-linejoin="round" stroke-width="10.000000"
	d="
M122.500000,450.750000 
	C126.054169,452.115601 126.431442,455.302734 127.642784,458.444946 
	C135.401718,478.571381 148.123428,494.347473 168.499741,503.000610 
	C188.628555,511.548676 209.223557,518.306824 230.960541,521.749146 
	C238.527130,522.947388 246.947067,524.583496 251.500000,532.500000 
"/>
<path fill="none" opacity="1.000000" stroke="#000000" stroke-linecap="round" stroke-linejoin="round" stroke-width="4.000000"
	d="
M673.500000,190.500000 
	C694.076660,208.034012 710.028809,229.404816 724.496765,252.002090 
	C735.864075,269.756500 746.758179,287.801575 756.402710,306.550049 
	C759.188416,311.965302 762.456909,317.302063 763.500000,323.500000 
"/>
<path fill="none" opacity="1.000000" stroke="#000000" stroke-linecap="round" stroke-linejoin="round" stroke-width="10.000000"
	d="
M535.500000,471.500000 
	C534.104614,473.973846 536.009644,475.586670 536.977478,477.511322 
	C544.515625,492.501221 551.972107,507.524597 558.535034,522.985107 
	C567.634583,544.421082 576.454102,565.958252 584.016602,587.994324 
	C585.231689,591.534851 586.666626,595.000000 588.000000,598.500000 
"/>
<path fill="none" opacity="1.000000" stroke="#000000" stroke-linecap="round" stroke-linejoin="round" stroke-width="9.000000"
	d="
M387.000000,744.500000 
	C384.699554,744.265320 382.710358,744.645386 380.967224,746.468689 
	C377.437195,750.160889 372.462158,749.658630 367.993927,750.466492 
	C355.000305,752.815796 341.848389,754.518005 329.994385,760.989685 
	C325.212006,763.600708 325.047577,764.389648 327.471008,769.015198 
	C334.234619,781.924927 344.882233,789.296204 358.972534,792.616577 
	C367.881897,794.716064 377.160248,796.105591 385.002594,801.496216 
	C387.118622,802.950745 389.075165,801.281189 390.969879,800.863403 
	C392.808136,800.458130 394.323700,798.723511 396.500000,799.000000 
"/>
<path fill="none" opacity="1.000000" stroke="#000000" stroke-linecap="round" stroke-linejoin="round" stroke-width="21.000000"
	d="
M907.500000,1435.500000 
	C907.500000,1433.000000 907.188477,1430.453735 907.551758,1428.007690 
	C909.547974,1414.566162 903.527039,1403.206299 898.548157,1391.479614 
	C889.379517,1369.884521 880.406921,1348.204468 871.570557,1326.471313 
	C869.561279,1321.529297 866.571655,1318.659546 861.632080,1316.231323 
	C854.780945,1312.863281 848.116272,1309.532349 840.496765,1308.524414 
	C839.186401,1308.351074 837.833313,1308.500000 836.500000,1308.500000 
"/>
<path fill="none" opacity="1.000000" stroke="#000000" stroke-linecap="round" stroke-linejoin="round" stroke-width="6.000000"
	d="
M795.500000,457.000000 
	C792.995361,464.804779 791.956055,472.934174 791.623291,481.005096 
	C790.720764,502.891663 791.858582,524.654053 797.461487,546.010132 
	C800.220337,556.526001 803.581970,566.784668 808.500000,576.500000 
"/>
<path fill="none" opacity="1.000000" stroke="#000000" stroke-linecap="round" stroke-linejoin="round" stroke-width="4.000000"
	d="
M634.500000,228.500000 
	C648.543152,235.149612 660.357239,245.010071 671.947144,255.060959 
	C687.545715,268.588165 702.310974,283.016541 715.983398,298.514648 
	C723.409729,306.932587 730.765381,315.418549 737.907227,324.076508 
	C739.164368,325.600494 740.831238,326.502136 742.000000,328.000000 
"/>
<path fill="none" opacity="1.000000" stroke="#000000" stroke-linecap="round" stroke-linejoin="round" stroke-width="6.000000"
	d="
M1214.000000,1320.000000 
	C1211.837769,1322.816895 1211.468628,1326.060303 1211.473267,1329.500000 
	C1211.517822,1362.666626 1211.500000,1395.833374 1211.500000,1429.000000 
"/>
<path fill="none" opacity="1.000000" stroke="#000000" stroke-linecap="round" stroke-linejoin="round" stroke-width="22.000000"
	d="
M938.500000,1434.500000 
	C948.117493,1434.575195 956.540955,1430.978149 964.491211,1425.986084 
	C966.673218,1424.615845 967.123657,1422.380493 966.993958,1420.000366 
	C965.868286,1399.340942 966.660217,1378.666260 966.559326,1357.999756 
	C966.504761,1346.836304 965.943604,1335.656128 966.956116,1324.495972 
	C967.089294,1323.027588 966.626282,1321.505127 966.437500,1319.992554 
	C957.273132,1318.893799 954.321533,1321.026367 949.985779,1331.494141 
	C940.865601,1353.513306 931.662720,1375.498291 922.510193,1397.504272 
	C921.964111,1398.817017 921.293274,1400.028931 920.894470,1401.470825 
	C919.115906,1407.900146 914.639343,1411.355103 908.000000,1412.000000 
"/>
<path fill="none" opacity="1.000000" stroke="#000000" stroke-linecap="round" stroke-linejoin="round" stroke-width="6.000000"
	d="
M859.000000,1322.000000 
	C856.720154,1324.407837 856.454773,1327.333252 856.460876,1330.500122 
	C856.524475,1363.333374 856.500000,1396.166626 856.500000,1429.000000 
"/>
<path fill="none" opacity="1.000000" stroke="#000000" stroke-linecap="round" stroke-linejoin="round" stroke-width="22.000000"
	d="
M516.500000,1317.500000 
	C516.500000,1349.333374 516.500000,1381.166626 516.500000,1413.000000 
	C516.500000,1413.333374 516.522278,1413.668335 516.496826,1413.999756 
	C515.569946,1426.064209 514.731934,1424.184570 527.491699,1430.516724 
	C532.870178,1433.185913 538.491394,1434.619995 544.500000,1434.500000 
"/>
<path fill="none" opacity="1.000000" stroke="#000000" stroke-linecap="round" stroke-linejoin="round" stroke-width="22.000000"
	d="
M1121.500000,1308.500000 
	C1112.191895,1308.466431 1104.150879,1311.899292 1096.406982,1316.854614 
	C1093.320312,1318.829834 1092.907837,1321.087158 1093.014282,1323.999512 
	C1094.134766,1354.661743 1093.546143,1385.338013 1093.214355,1415.996948 
	C1093.141846,1422.698120 1095.128052,1426.443481 1100.522217,1428.952148 
	C1107.153809,1432.036377 1113.985962,1434.629150 1121.500000,1434.500000 
"/>
<path fill="none" opacity="1.000000" stroke="#000000" stroke-linecap="round" stroke-linejoin="round" stroke-width="5.000000"
	d="
M1504.000000,1398.500000 
	C1503.666626,1401.333374 1503.327026,1404.165894 1503.001343,1407.000122 
	C1502.220093,1413.797607 1499.585205,1420.075562 1497.440674,1426.480103 
	C1496.889038,1428.127808 1495.509399,1429.019531 1493.528076,1429.596313 
	C1473.209717,1435.511597 1453.082397,1436.821899 1432.952393,1428.616943 
	C1429.485229,1427.203857 1426.779419,1424.621704 1423.250000,1423.500000 
"/>
<path fill="none" opacity="1.000000" stroke="#000000" stroke-linecap="round" stroke-linejoin="round" stroke-width="22.000000"
	d="
M2.500000,1308.500000 
	C12.137283,1308.364380 20.543575,1311.897217 28.541182,1316.934570 
	C30.861292,1318.396118 31.124441,1320.168335 31.019695,1322.500854 
	C30.069569,1343.660156 30.630381,1364.833130 30.511110,1386.000122 
	C30.446188,1397.521606 30.447252,1409.043213 31.966101,1420.504517 
	C32.180637,1422.123413 31.901226,1423.301758 30.096260,1424.630737 
	C21.822044,1430.722900 12.905268,1434.572876 2.500000,1434.500000 
"/>
<path fill="none" opacity="1.000000" stroke="#000000" stroke-linecap="round" stroke-linejoin="round" stroke-width="5.000000"
	d="
M112.500000,1398.500000 
	C111.943932,1408.436523 109.971519,1417.968628 105.716652,1427.100952 
	C104.867157,1428.924194 103.794365,1428.464478 102.953850,1428.913696 
	C96.589561,1432.315430 89.485954,1433.605469 82.494652,1433.841553 
	C68.609207,1434.310303 54.504402,1435.239502 41.503994,1428.492310 
	C38.393513,1426.877930 35.333344,1425.166626 32.250011,1423.500000 
"/>
<path fill="none" opacity="1.000000" stroke="#000000" stroke-linecap="round" stroke-linejoin="round" stroke-width="5.000000"
	d="
M390.500000,1399.500000 
	C388.765106,1408.439209 387.698120,1417.528687 384.066956,1426.028564 
	C383.388092,1427.617920 382.585266,1428.351685 381.034637,1429.074341 
	C373.547180,1432.563110 365.531738,1433.451294 357.496643,1433.945679 
	C340.632446,1434.983398 324.240112,1433.487427 309.750000,1423.500000 
"/>
<path fill="none" opacity="1.000000" stroke="#000000" stroke-linecap="round" stroke-linejoin="round" stroke-width="3.000000"
	d="
M930.500000,1566.500000 
	C931.202820,1572.547363 933.337463,1577.977539 938.537598,1581.443604 
	C945.346008,1585.981812 954.629822,1585.808472 960.931885,1573.963745 
	C967.392273,1561.821655 957.088318,1546.583374 945.494934,1547.430420 
	C940.064453,1547.827271 932.246216,1553.243286 930.998779,1562.499878 
	C930.841431,1563.667725 930.666626,1564.833374 930.499939,1566.000000 
"/>
<path fill="none" opacity="1.000000" stroke="#000000" stroke-linecap="round" stroke-linejoin="round" stroke-width="3.000000"
	d="
M357.500000,1565.500000 
	C356.604523,1559.406494 356.314056,1558.700439 353.504181,1554.747070 
	C346.199646,1544.470215 335.679108,1545.276733 329.107544,1554.080322 
	C321.014221,1564.922485 325.639496,1577.896606 336.052979,1582.889526 
	C344.404663,1586.893921 352.122711,1581.047363 355.589478,1574.044312 
	C356.897125,1571.402832 356.566528,1568.599976 357.500000,1566.000000 
"/>
<path fill="none" opacity="1.000000" stroke="#000000" stroke-linecap="round" stroke-linejoin="round" stroke-width="19.000000"
	d="
M704.500000,1310.500000 
	C703.471924,1321.503174 706.255798,1331.451416 710.777954,1341.598999 
	C720.662415,1363.779053 729.361633,1386.488525 738.466797,1409.013428 
	C739.707520,1412.082764 740.988525,1415.273438 741.385803,1418.514038 
	C741.985901,1423.408325 745.016724,1425.547363 748.964233,1427.569824 
	C756.716492,1431.541870 764.661133,1434.519409 773.500000,1434.500000 
"/>
<path fill="none" opacity="1.000000" stroke="#000000" stroke-linecap="round" stroke-linejoin="round" stroke-width="5.000000"
	d="
M1325.500000,1309.000000 
	C1318.105591,1307.457642 1311.544922,1310.302124 1305.023926,1313.056519 
	C1302.947388,1313.933716 1303.476440,1316.193970 1303.509766,1317.999878 
	C1303.653809,1325.833618 1303.949219,1333.666260 1303.977173,1341.500122 
	C1304.046631,1360.999878 1303.986816,1380.500000 1304.016968,1400.000000 
	C1304.020630,1402.411133 1304.068848,1404.764771 1302.000000,1406.500000 
"/>
<path fill="none" opacity="1.000000" stroke="#000000" stroke-linecap="round" stroke-linejoin="round" stroke-width="4.000000"
	d="
M1008.500000,364.500000 
	C976.676208,369.072174 945.907837,377.379028 916.500000,390.500000 
"/>
<path fill="none" opacity="1.000000" stroke="#000000" stroke-linecap="round" stroke-linejoin="round" stroke-width="13.000000"
	d="
M646.000000,574.500000 
	C646.210632,571.568787 643.115906,572.490906 641.958008,571.033386 
	C638.857483,567.130676 637.076904,562.578613 635.557251,557.981079 
	C631.677795,546.244263 629.730957,534.023926 627.008118,521.998169 
	C625.463257,515.175049 624.045410,508.322937 622.485962,501.503235 
	C621.193359,495.850952 619.828064,494.798645 614.500000,495.000031 
	C609.406799,495.192566 608.896057,495.731262 608.006653,502.000946 
	C607.794800,503.494537 607.666687,505.000000 607.500000,506.500000 
"/>
<path fill="none" opacity="1.000000" stroke="#000000" stroke-linecap="round" stroke-linejoin="round" stroke-width="8.000000"
	d="
M660.500000,596.000000 
	C664.100525,596.856140 663.271973,600.443420 663.805664,602.549255 
	C667.667908,617.790771 671.530701,633.071167 674.313538,648.533569 
	C676.170837,658.853516 678.763000,669.289490 677.038452,680.006165 
	C676.911987,680.792358 677.333313,681.666687 677.500000,682.500000 
"/>
<path fill="none" opacity="1.000000" stroke="#000000" stroke-linecap="round" stroke-linejoin="round" stroke-width="5.000000"
	d="
M380.000000,1338.500000 
	C379.139038,1330.923584 377.149811,1323.639648 374.557159,1316.479248 
	C373.785492,1314.348022 372.636688,1313.137329 370.508942,1312.471436 
	C363.335663,1310.226318 356.023102,1308.985718 348.500000,1308.996948 
	C339.666656,1309.010132 330.833221,1309.026733 322.000092,1308.982422 
	C319.588470,1308.970337 317.235229,1308.931152 315.500000,1311.000000 
"/>
<path fill="none" opacity="1.000000" stroke="#000000" stroke-linecap="round" stroke-linejoin="round" stroke-width="5.000000"
	d="
M1493.500000,1337.500000 
	C1491.816650,1333.849243 1492.187988,1329.805176 1491.347900,1325.978516 
	C1490.428101,1321.787842 1488.567871,1318.142456 1486.525024,1314.486084 
	C1485.387207,1312.449463 1483.209473,1312.021484 1481.471924,1311.621826 
	C1475.898560,1310.339600 1470.259521,1309.085205 1464.499756,1309.027710 
	C1454.500732,1308.927979 1444.499878,1309.025391 1434.500122,1308.978516 
	C1432.502930,1308.969238 1430.842041,1309.521729 1429.500000,1311.000000 
"/>
<path fill="none" opacity="1.000000" stroke="#000000" stroke-linecap="round" stroke-linejoin="round" stroke-width="22.000000"
	d="
M278.500000,1434.000000 
	C286.672729,1435.360596 293.882568,1432.337891 300.993439,1428.986084 
	C306.881989,1426.210327 309.827484,1422.723633 309.299316,1414.979614 
	C307.439087,1387.704346 308.767609,1360.332764 308.510498,1332.999878 
	C308.464966,1328.160522 308.600769,1323.318359 307.730194,1318.257446 
	C298.969635,1312.839966 289.931000,1307.205566 278.500000,1309.000000 
"/>
<path fill="none" opacity="1.000000" stroke="#000000" stroke-linecap="round" stroke-linejoin="round" stroke-width="12.000000"
	d="
M834.500000,338.750000 
	C829.142334,343.653717 827.825867,350.604950 826.714661,357.037079 
	C824.345886,370.749146 823.381653,384.697540 821.401611,398.485870 
	C820.522400,404.608185 820.447449,409.712036 827.481934,412.054230 
	C828.281921,412.320557 828.833313,413.333344 829.500000,414.000000 
"/>
<path fill="none" opacity="1.000000" stroke="#000000" stroke-linecap="round" stroke-linejoin="round" stroke-width="6.000000"
	d="
M269.500000,396.500000 
	C290.504456,403.729431 306.031036,418.563568 320.918671,434.078033 
	C328.647766,442.132507 335.675140,450.886536 341.500000,460.500000 
"/>
<path fill="none" opacity="1.000000" stroke="#000000" stroke-linecap="round" stroke-linejoin="round" stroke-width="6.000000"
	d="
M755.000000,597.000000 
	C751.773193,602.766479 754.837891,608.500122 755.723145,613.963867 
	C758.038269,628.251709 761.391479,642.382812 766.531555,655.988098 
	C767.820923,659.400940 769.347961,662.746643 771.046143,665.975769 
	C772.513611,668.766296 772.921936,671.518982 772.000000,674.500000 
"/>
<path fill="none" opacity="1.000000" stroke="#000000" stroke-linecap="round" stroke-linejoin="round" stroke-width="22.000000"
	d="
M1393.500000,1434.500000 
	C1403.856201,1434.437744 1412.884766,1430.909180 1421.101807,1424.633301 
	C1422.867310,1423.284912 1423.063965,1422.146851 1422.985840,1420.500732 
	C1421.823120,1396.006714 1422.859253,1371.498535 1422.492920,1347.000122 
	C1422.370850,1338.832764 1422.127686,1330.667114 1422.025269,1322.499634 
	C1421.996704,1320.227417 1421.422607,1318.291748 1419.492432,1317.011475 
	C1411.616333,1311.788574 1403.164917,1308.280029 1393.500000,1308.500000 
"/>
<path fill="none" opacity="1.000000" stroke="#000000" stroke-linecap="round" stroke-linejoin="round" stroke-width="7.000000"
	d="
M735.000000,586.000000 
	C730.024658,590.733582 733.449768,596.439148 733.701050,601.489990 
	C734.492859,617.407532 737.746094,632.890320 744.463135,647.516907 
	C746.741577,652.478271 749.072632,658.100830 752.412598,661.606995 
	C756.634216,666.038757 760.998718,671.446167 767.495117,673.515259 
	C770.453674,674.457458 773.109558,675.673157 775.636780,677.840454 
	C778.909302,680.646973 783.166687,678.915405 787.000000,678.000000 
"/>
<path fill="none" opacity="1.000000" stroke="#000000" stroke-linecap="round" stroke-linejoin="round" stroke-width="5.000000"
	d="
M509.500000,1311.000000 
	C508.431610,1309.803467 507.110046,1309.014893 505.500000,1309.015625 
	C493.112640,1309.020752 480.805847,1309.333008 468.463837,1311.269531 
	C459.234833,1312.717529 457.556305,1319.325562 455.610901,1326.032227 
	C454.208435,1330.867065 453.833313,1336.000000 453.000000,1341.000000 
"/>
<path fill="none" opacity="1.000000" stroke="#000000" stroke-linecap="round" stroke-linejoin="round" stroke-width="5.000000"
	d="
M580.500000,1340.500000 
	C579.575439,1332.231201 577.392883,1324.264282 574.419067,1316.531128 
	C573.848877,1315.048584 572.424316,1314.105835 570.558655,1313.354370 
	C561.980347,1309.899414 552.959290,1309.666138 543.995911,1309.060303 
	C539.018677,1308.723877 533.999329,1309.048340 529.000305,1308.977295 
	C526.862244,1308.947021 524.962158,1309.312500 523.500000,1311.000000 
"/>
<path fill="none" opacity="1.000000" stroke="#000000" stroke-linecap="round" stroke-linejoin="round" stroke-width="3.000000"
	d="
M258.500000,1552.000000 
	C257.125885,1551.608765 255.700790,1551.623169 254.471085,1550.532593 
	C247.445480,1544.302490 237.824066,1548.288452 234.094879,1555.052246 
	C228.847183,1564.570557 230.680237,1576.574951 239.490707,1582.015015 
	C244.043732,1584.826416 248.648788,1584.660400 252.933640,1581.897095 
	C254.908463,1580.623535 256.812408,1579.345093 259.000000,1578.500000 
"/>
<path fill="none" opacity="1.000000" stroke="#000000" stroke-linecap="round" stroke-linejoin="round" stroke-width="3.000000"
	d="
M884.000000,1580.000000 
	C889.193970,1584.684692 895.010254,1585.622681 900.960815,1581.936646 
	C908.142090,1577.488281 909.661926,1570.164307 908.891846,1562.510864 
	C908.082703,1554.468384 902.654114,1549.428223 895.526428,1547.878540 
	C892.040039,1547.120483 889.447937,1548.182739 887.054504,1550.069092 
	C885.303467,1551.449341 883.904541,1553.230957 881.500000,1553.500000 
"/>
<path fill="none" opacity="1.000000" stroke="#000000" stroke-linecap="round" stroke-linejoin="round" stroke-width="7.000000"
	d="
M383.500000,1570.000000 
	C381.396667,1571.636108 377.470123,1571.951782 378.552734,1575.985840 
	C379.556641,1579.726807 382.637024,1580.207031 386.001312,1580.024414 
	C388.327789,1579.897949 390.666656,1579.997925 393.000000,1580.000488 
	C398.814667,1580.006958 403.192261,1582.395630 404.000000,1586.000000 
	C405.068146,1590.766602 402.240082,1595.807617 396.987457,1597.969482 
	C391.224426,1600.341675 385.573364,1599.448486 379.987762,1597.028198 
	C376.101501,1595.344360 375.271790,1592.288452 375.474640,1588.498657 
	C375.600769,1586.142822 376.831390,1584.712402 379.004700,1584.573730 
	C381.128113,1584.438110 384.132751,1583.500977 384.000000,1587.500000 
"/>
<path fill="none" opacity="1.000000" stroke="#000000" stroke-linecap="round" stroke-linejoin="round" stroke-width="9.000000"
	d="
M263.000000,611.250000 
	C264.768005,612.561157 267.089539,613.052734 266.212830,616.553284 
	C265.617096,618.931885 267.620300,621.484436 269.485077,623.513733 
	C282.252014,637.406982 298.069214,646.242432 316.029175,651.398315 
	C318.088989,651.989685 320.744659,652.361145 321.847046,653.632629 
	C325.325714,657.644836 329.091705,656.185425 333.000000,655.250000 
"/>
<path fill="none" opacity="1.000000" stroke="#000000" stroke-linecap="round" stroke-linejoin="round" stroke-width="5.000000"
	d="
M1086.000000,367.000000 
	C1100.379517,368.739594 1114.526001,371.582916 1127.972168,377.068268 
	C1135.626221,380.190735 1143.000000,384.000000 1150.500000,387.500000 
"/>
<path fill="none" opacity="1.000000" stroke="#000000" stroke-linecap="round" stroke-linejoin="round" stroke-width="11.000000"
	d="
M174.000000,413.500000 
	C174.000000,412.333344 173.935104,411.162354 174.012024,410.000793 
	C174.254364,406.341278 172.751785,404.905823 168.993561,405.456055 
	C163.050156,406.326233 157.597931,403.790009 152.013489,402.444061 
	C139.957382,399.538269 127.796898,398.977905 115.498894,399.986511 
	C112.065826,400.268097 109.465614,402.417480 106.500000,403.750000 
"/>
<path fill="none" opacity="1.000000" stroke="#000000" stroke-linecap="round" stroke-linejoin="round" stroke-width="11.000000"
	d="
M785.000000,615.500000 
	C781.517212,618.824463 781.164307,622.889221 781.406189,627.504944 
	C782.139893,641.504761 785.914246,655.067505 787.018921,668.998474 
	C787.033142,669.177246 787.487000,669.341980 787.478149,669.498779 
	C786.697449,683.330505 796.728882,687.841064 807.027954,691.929626 
	C809.959778,693.093567 813.130615,693.582581 815.000000,696.500000 
"/>
<path fill="none" opacity="1.000000" stroke="#000000" stroke-linecap="round" stroke-linejoin="round" stroke-width="10.000000"
	d="
M903.000000,610.500000 
	C900.005981,609.467285 897.261902,609.981873 894.480774,611.463989 
	C889.549194,614.092285 884.603516,616.743713 879.467773,618.924011 
	C875.251587,620.713928 873.720276,623.389832 873.354797,627.988464 
	C872.506897,638.657288 870.236572,649.178040 867.348694,659.457458 
	C865.520752,665.963867 863.504761,672.533447 860.093323,678.552917 
	C858.885986,680.683289 858.741028,683.421021 859.000000,686.000000 
"/>
<path fill="none" opacity="1.000000" stroke="#000000" stroke-linecap="round" stroke-linejoin="round" stroke-width="3.000000"
	d="
M380.000000,1559.500000 
	C380.665070,1564.895386 383.784882,1569.263062 387.500000,1570.000000 
	C391.247803,1570.743164 395.638580,1568.443359 397.999939,1564.500000 
	C399.755829,1561.567749 399.408264,1554.229004 396.942810,1551.552734 
	C394.497040,1548.897827 391.915741,1546.344238 387.472229,1547.921753 
	C382.665588,1549.628174 380.187378,1552.856323 380.000000,1559.000000 
"/>
<path fill="none" opacity="1.000000" stroke="#000000" stroke-linecap="round" stroke-linejoin="round" stroke-width="8.000000"
	d="
M451.500000,1578.000000 
	C449.449127,1578.064941 448.017914,1579.149170 446.444092,1580.431396 
	C442.463593,1583.674194 437.893677,1584.602905 433.003326,1582.492310 
	C427.856995,1580.271118 427.435913,1575.774536 427.483337,1570.999878 
	C427.549530,1564.333862 427.500000,1557.666626 427.500000,1550.890991 
	C424.688263,1549.489014 422.108795,1547.141724 418.500000,1548.500000 
"/>
<path fill="none" opacity="1.000000" stroke="#000000" stroke-linecap="round" stroke-linejoin="round" stroke-width="5.000000"
	d="
M704.000000,1327.500000 
	C696.852600,1327.733154 694.053650,1332.195312 691.854248,1338.448730 
	C687.339233,1351.286011 681.623474,1363.700684 677.100769,1376.535522 
	C672.087097,1390.763428 665.372925,1404.364380 661.522522,1419.005981 
	C660.700562,1422.131714 660.166687,1425.333374 659.500000,1428.500000 
"/>
<path fill="none" opacity="1.000000" stroke="#000000" stroke-linecap="round" stroke-linejoin="round" stroke-width="9.000000"
	d="
M596.000000,442.500000 
	C594.697754,449.754242 597.832458,456.477234 598.616638,463.486938 
	C599.424988,470.712341 601.196716,477.827942 602.489258,485.001953 
	C603.319885,489.612518 604.676697,493.885651 609.000000,496.500000 
"/>
<path fill="none" opacity="1.000000" stroke="#000000" stroke-linecap="round" stroke-linejoin="round" stroke-width="10.000000"
	d="
M873.000000,623.500000 
	C870.448364,622.892578 868.066956,622.900696 865.467529,623.916931 
	C860.075012,626.025208 854.463928,627.566650 849.011414,629.531677 
	C844.663635,631.098572 842.471985,633.905762 841.819763,638.976807 
	C840.194702,651.612732 837.472717,664.089661 834.586121,676.520020 
	C833.638123,680.602112 832.873474,684.774719 832.264160,688.965698 
	C831.707825,692.792053 827.816650,695.064819 824.462891,696.933350 
	C822.327881,698.122742 819.833374,698.666687 817.500000,699.500061 
"/>
<path fill="none" opacity="1.000000" stroke="#000000" stroke-linecap="round" stroke-linejoin="round" stroke-width="3.000000"
	d="
M1054.000000,1557.000000 
	C1056.270020,1561.352661 1060.033325,1563.758423 1064.479736,1565.550171 
	C1070.384644,1567.929443 1072.767578,1572.273804 1071.500000,1577.500000 
	C1070.503174,1581.610229 1067.823730,1583.787231 1063.500000,1583.999878 
	C1056.728516,1584.333008 1053.416748,1581.159424 1051.500000,1572.500000 
"/>
<path fill="none" opacity="1.000000" stroke="#000000" stroke-linecap="round" stroke-linejoin="round" stroke-width="8.000000"
	d="
M754.500000,1583.500000 
	C754.833313,1583.500000 755.192261,1583.582397 755.496338,1583.488159 
	C765.427979,1580.406616 764.628052,1580.885010 764.461853,1572.000732 
	C764.368347,1567.001343 764.605469,1562.014404 764.156006,1556.986084 
	C763.760437,1552.560181 761.761475,1549.811646 757.968933,1548.596924 
	C753.846069,1547.276733 749.570129,1547.304688 746.004639,1550.505127 
	C744.360352,1551.981201 743.167297,1554.143799 740.500000,1554.000000 
"/>
<path fill="none" opacity="1.000000" stroke="#000000" stroke-linecap="round" stroke-linejoin="round" stroke-width="8.000000"
	d="
M1098.000000,1536.500000 
	C1094.611816,1548.660645 1095.612061,1561.115112 1095.473755,1573.499756 
	C1095.425171,1577.853027 1096.244751,1581.692749 1101.015869,1582.939453 
	C1105.085449,1584.002930 1109.013916,1583.708496 1111.500000,1579.500000 
"/>
<path fill="none" opacity="1.000000" stroke="#000000" stroke-linecap="round" stroke-linejoin="round" stroke-width="11.000000"
	d="
M392.000000,421.000000 
	C389.048889,421.520020 386.710419,420.058136 384.515137,418.478943 
	C373.725006,410.717072 363.724060,401.968170 353.512238,393.485260 
	C350.863586,391.285065 348.114655,389.656006 344.500000,390.500000 
"/>
<path fill="none" opacity="1.000000" stroke="#000000" stroke-linecap="round" stroke-linejoin="round" stroke-width="5.000000"
	d="
M722.000000,1380.000000 
	C717.382141,1382.228882 712.446655,1382.144409 707.499939,1382.001709 
	C697.002197,1381.699097 686.484985,1382.612671 676.000000,1381.500000 
"/>
<path fill="none" opacity="1.000000" stroke="#000000" stroke-linecap="round" stroke-linejoin="round" stroke-width="3.000000"
	d="
M622.000000,1558.750000 
	C621.333313,1558.333374 620.145386,1557.985962 620.079407,1557.489502 
	C619.284485,1551.511230 615.510803,1548.386230 609.987671,1547.585083 
	C603.979980,1546.713623 599.978577,1550.216064 597.013367,1555.008301 
	C592.364624,1562.521362 594.843445,1576.028809 602.038025,1580.437988 
	C611.391785,1586.170166 620.786926,1582.932251 623.478149,1575.991577 
	C623.646729,1575.556885 623.500000,1575.000000 623.500000,1574.500000 
"/>
<path fill="none" opacity="1.000000" stroke="#000000" stroke-linecap="round" stroke-linejoin="round" stroke-width="3.000000"
	d="
M1152.500000,1559.500000 
	C1151.909424,1558.423828 1150.290894,1558.742310 1149.913330,1557.019043 
	C1148.708740,1551.522583 1145.283203,1548.056030 1139.497559,1547.526245 
	C1133.253418,1546.954468 1129.399902,1550.827148 1126.572876,1555.543701 
	C1122.195068,1562.847168 1125.079102,1576.246338 1132.043579,1580.427368 
	C1141.205566,1585.927734 1150.035889,1583.445435 1153.475464,1575.988647 
	C1153.665649,1575.576416 1153.500000,1575.000000 1153.500000,1574.500000 
"/>
<path fill="none" opacity="1.000000" stroke="#000000" stroke-linecap="round" stroke-linejoin="round" stroke-width="10.000000"
	d="
M107.500000,404.000000 
	C107.310783,406.559967 108.037537,408.585449 109.947021,410.551453 
	C118.899559,419.769012 127.636299,429.195709 136.518219,438.482574 
	C139.238037,441.326447 140.980835,444.500275 141.000000,448.500000 
"/>
<path fill="none" opacity="1.000000" stroke="#000000" stroke-linecap="round" stroke-linejoin="round" stroke-width="3.000000"
	d="
M1268.000000,1558.000000 
	C1266.400879,1555.015137 1265.852905,1551.524536 1262.543457,1549.431274 
	C1257.486328,1546.233154 1249.876465,1546.863525 1246.102051,1552.073853 
	C1241.541504,1558.369507 1240.645386,1565.545898 1243.490723,1573.003540 
	C1245.871094,1579.242310 1250.769287,1581.979980 1256.998657,1583.007935 
	C1263.890869,1584.145264 1267.000854,1582.346558 1271.500000,1574.500000 
"/>
<path fill="none" opacity="1.000000" stroke="#000000" stroke-linecap="round" stroke-linejoin="round" stroke-width="11.000000"
	d="
M883.500000,364.500000 
	C876.918945,364.984650 871.495056,366.406036 867.267883,372.847687 
	C860.560059,383.069580 853.939209,393.489471 845.531311,402.529114 
	C845.121521,402.969635 845.166626,403.833344 845.000000,404.500000 
"/>
<path fill="none" opacity="1.000000" stroke="#000000" stroke-linecap="round" stroke-linejoin="round" stroke-width="5.000000"
	d="
M199.000000,1318.500000 
	C203.420486,1323.870483 203.824295,1329.856689 199.980515,1336.488647 
	C195.617645,1344.016357 189.526352,1349.521484 181.000000,1352.000000 
"/>
<path fill="none" opacity="1.000000" stroke="#000000" stroke-linecap="round" stroke-linejoin="round" stroke-width="2.000000"
	d="
M815.000000,1558.000000 
	C812.213623,1549.521606 809.536072,1547.203857 802.501221,1547.526978 
	C798.279419,1547.720825 795.362976,1550.288696 793.013367,1553.509766 
	C786.022339,1563.093750 788.905334,1581.612061 804.994202,1583.064087 
	C811.637085,1583.663696 816.272522,1581.049072 818.500000,1574.500000 
"/>
<path fill="none" opacity="1.000000" stroke="#000000" stroke-linecap="round" stroke-linejoin="round" stroke-width="8.000000"
	d="
M477.000000,1566.500000 
	C478.464478,1572.578003 480.443542,1578.251465 486.484100,1581.529297 
	C494.617310,1585.942261 503.660187,1582.849487 506.500000,1574.500000 
"/>
<path fill="none" opacity="1.000000" stroke="#000000" stroke-linecap="round" stroke-linejoin="round" stroke-width="8.000000"
	d="
M365.500031,1269.500122 
	C364.000031,1270.000122 362.534637,1270.736450 360.994446,1270.961914 
	C350.708527,1272.467285 344.307190,1279.774292 337.496368,1286.496338 
	C335.105164,1288.856323 332.938751,1291.529419 329.500000,1292.500000 
"/>
<path fill="none" opacity="1.000000" stroke="#000000" stroke-linecap="round" stroke-linejoin="round" stroke-width="8.000000"
	d="
M1207.500000,1548.500000 
	C1216.500000,1550.492188 1216.500000,1550.492188 1216.500000,1559.500000 
	C1216.500000,1566.333374 1216.500000,1573.166626 1216.500000,1580.000000 
"/>
<path fill="none" opacity="1.000000" stroke="#000000" stroke-linecap="round" stroke-linejoin="round" stroke-width="8.000000"
	d="
M559.500000,1583.500000 
	C559.833313,1583.500000 560.192261,1583.582397 560.496338,1583.488159 
	C570.427979,1580.406616 569.593689,1580.885986 569.479736,1572.000244 
	C569.390015,1564.999634 569.987305,1557.980469 568.927246,1550.969849 
	C566.055054,1550.807739 563.580017,1548.618286 560.500000,1549.000000 
"/>
<path fill="none" opacity="1.000000" stroke="#000000" stroke-linecap="round" stroke-linejoin="round" stroke-width="10.000000"
	d="
M776.000000,679.500000 
	C773.802246,682.492249 773.377563,685.867554 773.454651,689.500977 
	C773.625061,697.530640 773.222839,705.542480 772.041992,713.506226 
	C771.900452,714.460510 772.333313,715.500000 772.500000,716.500000 
"/>
<path fill="none" opacity="1.000000" stroke="#000000" stroke-linecap="round" stroke-linejoin="round" stroke-width="8.000000"
	d="
M1037.500000,1583.500000 
	C1035.833374,1583.166748 1034.108154,1583.005737 1032.511963,1582.464722 
	C1029.008789,1581.277100 1027.281738,1579.030151 1027.417847,1574.997192 
	C1027.693115,1566.838989 1027.500000,1558.664917 1027.500000,1550.393677 
	C1024.683594,1549.902954 1022.091797,1549.451538 1019.500000,1549.000000 
"/>
<path fill="none" opacity="1.000000" stroke="#000000" stroke-linecap="round" stroke-linejoin="round" stroke-width="5.000000"
	d="
M345.000000,1369.000000 
	C333.025543,1367.747437 321.009155,1368.004272 309.000000,1368.000000 
"/>
<path fill="none" opacity="1.000000" stroke="#000000" stroke-linecap="round" stroke-linejoin="round" stroke-width="8.000000"
	d="
M460.500000,1582.500000 
	C452.551514,1581.105103 451.409821,1580.988037 452.336639,1573.479858 
	C453.126984,1567.077393 452.639069,1560.495850 452.446747,1554.001587 
	C452.335144,1550.232910 449.697449,1548.641357 443.500000,1548.000000 
"/>
<path fill="none" opacity="1.000000" stroke="#000000" stroke-linecap="round" stroke-linejoin="round" stroke-width="5.000000"
	d="
M1458.500000,1369.000000 
	C1446.688965,1367.877197 1434.844604,1367.933105 1423.000000,1368.000000 
"/>
<path fill="none" opacity="1.000000" stroke="#000000" stroke-linecap="round" stroke-linejoin="round" stroke-width="8.000000"
	d="
M729.500000,1583.500000 
	C730.666687,1583.333252 731.877380,1583.312500 732.992615,1582.975464 
	C738.696350,1581.252197 739.500000,1580.098999 739.500000,1574.000000 
	C739.500000,1561.166626 739.451538,1548.333130 739.515808,1535.500122 
	C739.564453,1525.780273 739.283813,1527.885132 730.500000,1526.000000 
"/>
<path fill="none" opacity="1.000000" stroke="#000000" stroke-linecap="round" stroke-linejoin="round" stroke-width="8.000000"
	d="
M879.000000,1585.500000 
	C878.833313,1585.000000 878.381958,1584.371338 878.541321,1584.018677 
	C883.332703,1573.419312 879.695862,1562.325928 880.427673,1551.495117 
	C880.831238,1545.522339 880.500000,1539.500000 880.500000,1533.500000 
	C880.500000,1527.688843 880.471313,1527.808716 874.526917,1526.387451 
	C873.483215,1526.137939 872.486938,1526.244995 871.500000,1526.000000 
"/>
<path fill="none" opacity="1.000000" stroke="#000000" stroke-linecap="round" stroke-linejoin="round" stroke-width="2.000000"
	d="
M503.000000,1558.000000 
	C501.773743,1552.226318 498.910645,1548.042114 492.498718,1547.515503 
	C486.746185,1547.042847 481.679138,1550.361938 479.519958,1556.007690 
	C478.476746,1558.735229 477.089172,1561.377441 477.443451,1564.506348 
	C477.564056,1565.571533 476.917603,1566.534790 475.500000,1565.750000 
"/>
<path fill="none" opacity="1.000000" stroke="#000000" stroke-linecap="round" stroke-linejoin="round" stroke-width="4.000000"
	d="
M516.000000,1424.000000 
	C508.923615,1430.043945 500.627991,1433.275513 491.494476,1434.457275 
	C489.859070,1434.668823 488.103210,1434.801270 486.500000,1434.000000 
"/>
<path fill="none" opacity="1.000000" stroke="#000000" stroke-linecap="round" stroke-linejoin="round" stroke-width="4.000000"
	d="
M1093.500000,1318.500000 
	C1085.723999,1313.773315 1077.807373,1309.370117 1068.496948,1308.533813 
	C1066.843994,1308.385376 1065.103149,1308.198730 1063.500000,1309.000000 
"/>
<path fill="none" opacity="1.000000" stroke="#000000" stroke-linecap="round" stroke-linejoin="round" stroke-width="10.000000"
	d="
M755.500000,359.500000 
	C764.158386,364.042328 771.697021,370.376923 779.822815,375.486633 
	C788.793762,381.127716 793.451599,389.112061 799.015320,396.989197 
	C800.244446,398.729431 801.329956,400.987915 803.062317,401.878876 
	C808.539734,404.696014 808.535156,409.511200 808.500000,414.500000 
"/>
<path fill="none" opacity="1.000000" stroke="#000000" stroke-linecap="round" stroke-linejoin="round" stroke-width="4.000000"
	d="
M1093.500000,1424.500000 
	C1085.723999,1429.226685 1077.807373,1433.629883 1068.496948,1434.466309 
	C1066.843994,1434.614746 1065.103149,1434.801270 1063.500000,1434.000000 
"/>
<path fill="none" opacity="1.000000" stroke="#000000" stroke-linecap="round" stroke-linejoin="round" stroke-width="4.000000"
	d="
M996.500000,1309.000000 
	C987.252441,1307.650391 979.263855,1311.194946 971.520203,1315.536011 
	C969.881287,1316.454834 968.500000,1317.833374 967.000000,1319.000000 
"/>
<path fill="none" opacity="1.000000" stroke="#000000" stroke-linecap="round" stroke-linejoin="round" stroke-width="4.000000"
	d="
M967.000000,1424.000000 
	C974.082886,1430.028809 982.447205,1433.100708 991.507080,1434.452637 
	C993.131897,1434.695068 994.896790,1434.801270 996.500000,1434.000000 
"/>
<path fill="none" opacity="1.000000" stroke="#000000" stroke-linecap="round" stroke-linejoin="round" stroke-width="5.000000"
	d="
M742.000000,1424.500000 
	C734.836853,1430.291870 726.731140,1433.801025 717.497437,1434.463989 
	C716.182861,1434.558350 714.833313,1434.166748 713.500000,1434.000122 
"/>
<path fill="none" opacity="1.000000" stroke="#000000" stroke-linecap="round" stroke-linejoin="round" stroke-width="4.000000"
	d="
M59.500000,1308.500000 
	C48.897720,1308.280273 39.860523,1312.442749 31.500000,1318.500000 
"/>
<path fill="none" opacity="1.000000" stroke="#000000" stroke-linecap="round" stroke-linejoin="round" stroke-width="9.000000"
	d="
M752.000000,663.000000 
	C743.464478,669.399109 736.063354,677.034668 728.470642,684.469971 
	C726.047974,686.842468 726.607117,689.693420 726.500000,692.500000 
"/>
<path fill="none" opacity="1.000000" stroke="#000000" stroke-linecap="round" stroke-linejoin="round" stroke-width="3.000000"
	d="
M1071.000000,1556.500000 
	C1070.428589,1550.376953 1068.109009,1547.920898 1062.500000,1547.499878 
	C1057.821411,1547.148804 1055.339233,1549.341919 1053.997192,1554.999390 
	C1053.808472,1555.795044 1053.706299,1556.706299 1052.500000,1556.500000 
"/>
<path fill="none" opacity="1.000000" stroke="#000000" stroke-linecap="round" stroke-linejoin="round" stroke-width="8.000000"
	d="
M250.500000,1526.000000 
	C251.666672,1526.166626 252.828934,1526.379272 254.000809,1526.491577 
	C257.969360,1526.871582 259.708801,1528.583130 259.611664,1533.002441 
	C259.307709,1546.829102 259.514191,1560.666626 259.494263,1574.500000 
	C259.483643,1581.862427 261.776672,1583.718140 269.500000,1582.500000 
"/>
<path fill="none" opacity="1.000000" stroke="#000000" stroke-linecap="round" stroke-linejoin="round" stroke-width="8.000000"
	d="
M980.500000,1549.000000 
	C988.587219,1549.836914 988.838867,1550.336304 988.552490,1558.501831 
	C988.301392,1565.659668 988.500000,1572.833374 988.500000,1580.000000 
"/>
<path fill="none" opacity="1.000000" stroke="#000000" stroke-linecap="round" stroke-linejoin="round" stroke-width="5.000000"
	d="
M351.000000,1344.500000 
	C352.149231,1351.571899 350.133423,1358.152710 347.394714,1364.454224 
	C346.092224,1367.450928 345.510040,1369.999146 346.973877,1373.012695 
	C350.265961,1379.789917 349.940765,1387.282349 351.000000,1394.500000 
"/>
<path fill="none" opacity="1.000000" stroke="#000000" stroke-linecap="round" stroke-linejoin="round" stroke-width="4.000000"
	d="
M1464.500000,1345.500000 
	C1464.573730,1352.996094 1463.592285,1360.284424 1459.971313,1366.984497 
	C1459.103882,1368.589355 1459.286255,1370.062012 1460.020386,1371.489502 
	C1463.746704,1378.734619 1464.252075,1386.588379 1464.500000,1394.500000 
"/>
<path fill="none" opacity="1.000000" stroke="#000000" stroke-linecap="round" stroke-linejoin="round" stroke-width="8.000000"
	d="
M281.500000,1549.000000 
	C284.091797,1549.451538 286.683563,1549.902954 289.517517,1550.396606 
	C291.517303,1559.582520 290.239441,1568.831421 290.403870,1578.001709 
	C290.465118,1581.417969 286.771393,1581.721069 284.462341,1582.927979 
	C283.346771,1583.511230 281.833344,1583.333374 280.500000,1583.500000 
"/>
<path fill="none" opacity="1.000000" stroke="#000000" stroke-linecap="round" stroke-linejoin="round" stroke-width="8.000000"
	d="
M521.500000,1549.000122 
	C524.010315,1549.441284 526.520630,1549.882568 529.213257,1550.355957 
	C531.178650,1557.452148 529.297668,1564.509644 529.362305,1571.501221 
	C529.466309,1582.740967 531.710693,1581.502563 539.500000,1583.500000 
"/>
<path fill="none" opacity="1.000000" stroke="#000000" stroke-linecap="round" stroke-linejoin="round" stroke-width="8.000000"
	d="
M1168.500000,1549.000000 
	C1171.091797,1549.451416 1173.683594,1549.902832 1176.517456,1550.396484 
	C1178.517334,1559.582520 1177.164551,1568.831909 1177.396973,1578.002563 
	C1177.438354,1579.633423 1175.981323,1580.906006 1174.036011,1581.600708 
	C1171.879395,1582.370972 1169.822144,1583.338501 1167.500000,1583.500000 
"/>
<path fill="none" opacity="1.000000" stroke="#000000" stroke-linecap="round" stroke-linejoin="round" stroke-width="7.000000"
	d="
M833.500000,1549.000000 
	C836.010315,1549.441284 838.520630,1549.882568 841.238037,1550.360229 
	C843.148804,1557.582275 841.776245,1564.833374 841.944092,1572.001343 
	C842.169312,1581.617065 842.000000,1581.620972 851.500000,1583.500000 
"/>
<path fill="none" opacity="1.000000" stroke="#000000" stroke-linecap="round" stroke-linejoin="round" stroke-width="3.000000"
	d="
M1148.500000,1559.000000 
	C1144.649780,1561.131226 1140.497192,1559.653809 1136.496094,1559.946899 
	C1133.014771,1560.202026 1129.500000,1560.000000 1126.000000,1560.000000 
"/>
<path fill="none" opacity="1.000000" stroke="#000000" stroke-linecap="round" stroke-linejoin="round" stroke-width="3.000000"
	d="
M1265.500000,1559.000000 
	C1261.649780,1561.131226 1257.497070,1559.653687 1253.496094,1559.946777 
	C1250.014771,1560.201904 1246.500000,1560.000000 1243.000000,1560.000000 
"/>
<path fill="none" opacity="1.000000" stroke="#000000" stroke-linecap="round" stroke-linejoin="round" stroke-width="3.000000"
	d="
M618.500000,1559.000000 
	C614.649841,1561.131226 610.497131,1559.653809 606.496094,1559.946899 
	C603.014771,1560.202026 599.500000,1560.000000 596.000000,1560.000000 
"/>
<path fill="none" opacity="1.000000" stroke="#000000" stroke-linecap="round" stroke-linejoin="round" stroke-width="3.000000"
	d="
M791.000000,1559.000000 
	C798.500000,1560.445557 806.000000,1560.797729 813.500000,1559.000000 
"/>
<path fill="none" opacity="1.000000" stroke="#000000" stroke-linecap="round" stroke-linejoin="round" stroke-width="3.000000"
	d="
M479.000000,1559.000000 
	C486.500000,1560.445557 494.000000,1560.797729 501.500000,1559.000000 
"/>
<path fill="none" opacity="1.000000" stroke="#000000" stroke-linecap="round" stroke-linejoin="round" stroke-width="9.000000"
	d="
M779.500000,402.000000 
	C785.051941,402.502228 788.588745,406.129456 792.012268,409.989105 
	C794.280823,412.546570 796.666626,415.000000 799.000000,417.500000 
"/>
<path fill="none" opacity="1.000000" stroke="#000000" stroke-linecap="round" stroke-linejoin="round" stroke-width="6.000000"
	d="
M842.000000,635.000000 
	C840.352112,633.820007 838.256042,632.788452 836.548035,633.600952 
	C831.167725,636.160339 826.000000,639.166626 820.750000,642.000000 
"/>
<path fill="none" opacity="1.000000" stroke="#000000" stroke-linecap="round" stroke-linejoin="round" stroke-width="4.000000"
	d="
M1304.000000,1313.500000 
	C1297.533081,1310.331299 1290.763306,1308.403687 1283.500000,1308.500000 
"/>
<path fill="none" opacity="1.000000" stroke="#000000" stroke-linecap="round" stroke-linejoin="round" stroke-width="7.000000"
	d="
M780.250000,358.000000 
	C781.500000,360.666656 782.431946,363.550781 784.072388,365.950500 
	C786.725525,369.831696 787.311707,373.711029 785.500000,378.000000 
"/>
<path fill="none" opacity="1.000000" stroke="#000000" stroke-linecap="round" stroke-linejoin="round" stroke-width="4.000000"
	d="
M678.500000,1434.500000 
	C672.694885,1434.118652 667.120911,1432.620361 662.070679,1429.870117 
	C659.977722,1428.730225 658.761841,1429.181641 656.982361,1429.959595 
	C651.409424,1432.395630 645.691467,1434.392700 639.500000,1434.500000 
"/>
<path fill="none" opacity="1.000000" stroke="#000000" stroke-linecap="round" stroke-linejoin="round" stroke-width="4.000000"
	d="
M876.500000,1434.500000 
	C870.491394,1434.619995 864.818176,1433.289429 859.505615,1430.489258 
	C857.584717,1429.476807 856.029846,1429.557861 853.947266,1430.649414 
	C848.545654,1433.480957 842.609741,1434.539795 836.500000,1434.500000 
"/>
<path fill="none" opacity="1.000000" stroke="#000000" stroke-linecap="round" stroke-linejoin="round" stroke-width="4.000000"
	d="
M1231.500000,1434.500000 
	C1225.390259,1434.539795 1219.454346,1433.481079 1214.052612,1430.649536 
	C1211.970093,1429.557861 1210.415405,1429.477051 1208.494385,1430.489380 
	C1203.181885,1433.289551 1197.508667,1434.619995 1191.500000,1434.500000 
"/>
<path fill="none" opacity="1.000000" stroke="#000000" stroke-linecap="round" stroke-linejoin="round" stroke-width="2.000000"
	d="
M860.500000,1550.500000 
	C859.000000,1550.166626 857.334167,1550.141235 856.032227,1549.440186 
	C852.662598,1547.625732 849.955017,1548.385742 847.502380,1551.002197 
	C846.116943,1552.480713 844.848083,1554.135742 842.500000,1554.000000 
"/>
<path fill="none" opacity="1.000000" stroke="#000000" stroke-linecap="round" stroke-linejoin="round" stroke-width="3.000000"
	d="
M307.500000,1550.500000 
	C301.410217,1547.395996 299.083496,1547.729614 294.517120,1552.516357 
	C293.516479,1553.565308 292.530914,1554.349976 291.000000,1554.000000 
"/>
<path fill="none" opacity="1.000000" stroke="#000000" stroke-linecap="round" stroke-linejoin="round" stroke-width="2.000000"
	d="
M548.500000,1550.500000 
	C547.000000,1550.166626 545.334290,1550.141113 544.032227,1549.440186 
	C540.662598,1547.625732 537.954895,1548.385620 535.502380,1551.002197 
	C534.116882,1552.480713 532.848083,1554.135742 530.500000,1554.000000 
"/>
<path fill="none" opacity="1.000000" stroke="#000000" stroke-linecap="round" stroke-linejoin="round" stroke-width="3.000000"
	d="
M1195.500000,1550.500000 
	C1193.515869,1550.626953 1192.206299,1548.783325 1190.489990,1548.588867 
	C1187.598511,1548.261353 1184.558350,1548.344360 1182.519531,1551.014893 
	C1181.334717,1552.567017 1180.499390,1554.499146 1178.000000,1554.000000 
"/>
<path fill="none" opacity="1.000000" stroke="#000000" stroke-linecap="round" stroke-linejoin="round" stroke-width="3.000000"
	d="
M1005.500000,1550.500000 
	C1000.614624,1547.578491 996.222351,1547.553345 992.445679,1552.458130 
	C991.831787,1553.255493 990.500000,1553.500000 989.500000,1554.000000 
"/>
<path fill="none" opacity="1.000000" stroke="#000000" stroke-linecap="round" stroke-linejoin="round" stroke-width="5.000000"
	d="
M756.500000,414.500000 
	C760.135376,415.786896 762.635437,418.637238 765.516602,420.979584 
	C768.067505,423.053528 768.495422,425.556763 767.500000,428.500000 
"/>
<path fill="none" opacity="1.000000" stroke="#000000" stroke-linecap="round" stroke-linejoin="round" stroke-width="3.000000"
	d="
M1109.500000,1548.000000 
	C1104.334595,1547.793823 1099.131104,1548.528320 1094.004639,1547.477295 
	C1091.981812,1547.062500 1090.425049,1548.671265 1088.500000,1548.500000 
"/>
<path fill="none" opacity="1.000000" stroke="#000000" stroke-linecap="round" stroke-linejoin="round" stroke-width="3.000000"
	d="
M408.000000,1552.500000 
	C407.243530,1548.244019 403.427979,1547.239868 398.500000,1550.000000 
"/>
<path fill="none" opacity="1.000000" stroke="#000000" stroke-linecap="round" stroke-linejoin="round" stroke-width="3.000000"
	d="
M842.000000,1580.000000 
	C839.071289,1581.812622 836.002258,1583.244141 832.500000,1583.500000 
"/>
<path fill="none" opacity="1.000000" stroke="#000000" stroke-linecap="round" stroke-linejoin="round" stroke-width="3.000000"
	d="
M1028.000000,1580.000000 
	C1025.071289,1581.812622 1022.002258,1583.244141 1018.500000,1583.500000 
"/>
<path fill="none" opacity="1.000000" stroke="#000000" stroke-linecap="round" stroke-linejoin="round" stroke-width="3.000000"
	d="
M530.000000,1580.000000 
	C527.071289,1581.812622 524.002258,1583.244141 520.500000,1583.500000 
"/>
<path fill="none" opacity="1.000000" stroke="#000000" stroke-linecap="round" stroke-linejoin="round" stroke-width="3.000000"
	d="
M764.500000,1580.000000 
	C767.029297,1582.376953 770.229431,1583.029053 773.500000,1583.500000 
"/>
<path fill="none" opacity="1.000000" stroke="#000000" stroke-linecap="round" stroke-linejoin="round" stroke-width="3.000000"
	d="
M1177.500000,1580.000000 
	C1180.029297,1582.376953 1183.229492,1583.029053 1186.500000,1583.500000 
"/>
<path fill="none" opacity="1.000000" stroke="#000000" stroke-linecap="round" stroke-linejoin="round" stroke-width="3.000000"
	d="
M290.500000,1580.000000 
	C292.980194,1582.503296 296.322021,1582.791016 299.500000,1583.500000 
"/>
<path fill="none" opacity="1.000000" stroke="#000000" stroke-linecap="round" stroke-linejoin="round" stroke-width="3.000000"
	d="
M997.500000,1583.500000 
	C996.023804,1582.365112 994.072388,1583.437134 992.424377,1582.092651 
	C990.408325,1580.447754 988.076477,1579.725952 985.403137,1581.879761 
	C983.946045,1583.053467 981.500000,1582.999878 979.500000,1583.499878 
"/>
<path fill="none" opacity="1.000000" stroke="#000000" stroke-linecap="round" stroke-linejoin="round" stroke-width="3.000000"
	d="
M739.500000,1580.000000 
	C742.029297,1582.376953 745.229431,1583.029053 748.500000,1583.500000 
"/>
<path fill="none" opacity="1.000000" stroke="#000000" stroke-linecap="round" stroke-linejoin="round" stroke-width="3.000000"
	d="
M569.500000,1580.000000 
	C572.029297,1582.376953 575.229431,1583.029053 578.500000,1583.500000 
"/>
<path fill="none" opacity="1.000000" stroke="#000000" stroke-linecap="round" stroke-linejoin="round" stroke-width="3.000000"
	d="
M1207.500000,1583.500000 
	C1208.000000,1583.333374 1208.488647,1583.106689 1209.001709,1583.009277 
	C1214.330200,1581.997925 1219.439209,1582.158447 1225.500000,1583.500000 
"/>
<path fill="none" opacity="1.000000" stroke="#000000" stroke-linecap="round" stroke-linejoin="round" stroke-width="3.000000"
	d="
M880.000000,358.500000 
	C880.629761,360.660522 878.847290,362.419006 879.000000,364.500000 
"/>
</svg>